<svg width="100%" height="100%" overflow="visible" style="display: block;" viewBox="0 0 18 13.5" fill="none" xmlns="http://www.w3.org/2000/svg">
<path id="Icon" fill-rule="evenodd" clip-rule="evenodd" d="M13.5 4.5C13.5 2.01472 11.4853 0 9 0C6.51472 0 4.5 2.01472 4.5 4.5C2.01472 4.5 0 6.51472 0 9V13.5H18V10.125C18 7.63972 15.9853 5.625 13.5 5.625V4.5ZM6.1875 6.1875H4.5C2.9467 6.1875 1.6875 7.4467 1.6875 9V11.8125H16.3125V10.125C16.3125 8.5717 15.0533 7.3125 13.5 7.3125H11.8125V4.5C11.8125 2.9467 10.5533 1.6875 9 1.6875C7.4467 1.6875 6.1875 2.9467 6.1875 4.5V6.1875Z" fill="#178FFF"/>
</svg>
