<svg width="2058" height="300" viewBox="0 0 2058 300" fill="none" xmlns="http://www.w3.org/2000/svg">
  <path
    d="M45.1744 197.846C53.1917 190.811 65.6529 184.038 81.2124 178.262C87.1905 176.042 93.5426 173.992 100.236 172.114C102.865 171.377 104.762 169.089 104.997 166.37L105.133 164.784C105.791 157.175 106.615 149.646 107.593 142.259C108.201 137.667 103.989 133.911 99.4989 135.035C88.5609 137.773 78.237 140.929 68.672 144.481C48.7558 151.874 32.8524 160.716 21.4066 170.762C14.8716 176.498 9.75062 182.684 6.18831 189.149C2.08279 196.596 0 204.415 0 212.389C0 220.363 2.08279 228.179 6.18831 235.629C9.75335 242.094 14.8716 248.28 21.4066 254.016C32.8524 264.062 48.7558 272.904 68.672 280.297C78.237 283.849 88.5609 287.002 99.4989 289.743C103.992 290.868 108.201 287.111 107.593 282.519C106.615 275.132 105.791 267.603 105.133 259.994L104.997 258.408C104.762 255.689 102.865 253.401 100.236 252.664C93.5426 250.786 87.1933 248.736 81.2124 246.516C65.6529 240.74 53.1917 233.969 45.1744 226.932C41.0034 223.271 36.0325 217.778 36.0325 212.389C36.0325 207 41.0034 201.507 45.1744 197.849V197.846Z"
    fill="white" />
  <path
    d="M418.559 189.149C414.994 182.684 409.876 176.498 403.341 170.762C391.895 160.716 375.991 151.874 356.075 144.481C346.557 140.946 336.285 137.804 325.407 135.074C307.808 130.656 294.099 116.949 289.685 99.3491C286.955 88.4675 283.814 78.1973 280.279 68.6779C272.886 48.76 264.045 32.8552 253.999 21.4084C248.264 14.8729 242.079 9.75146 235.615 6.18885C228.168 2.08297 220.35 0 212.376 0C204.403 0 196.588 2.08297 189.138 6.18885C182.674 9.75419 176.489 14.8729 170.753 21.4084C160.708 32.8552 151.866 48.76 144.474 68.6779C137.879 86.45 132.646 106.835 128.915 128.92C126.878 140.968 125.292 153.52 124.173 166.433C122.882 181.352 122.216 196.746 122.216 212.389C122.216 228.032 122.879 243.429 124.173 258.348C125.148 269.601 126.477 280.581 128.15 291.19C128.59 293.985 130.787 296.18 133.582 296.622C141.43 297.859 149.48 298.91 157.694 299.767C162.032 300.22 165.589 296.404 164.838 292.107C164.442 289.849 164.065 287.564 163.702 285.255C162.602 278.255 161.671 271.119 160.904 263.868C159.144 247.245 158.251 230.011 158.251 212.389C158.251 194.767 159.144 177.533 160.904 160.91C161.671 153.659 162.605 146.523 163.702 139.523C164.527 134.271 165.436 129.155 166.424 124.178C169.569 108.344 173.532 93.9438 178.255 81.2167C184.031 65.6558 190.801 53.1935 197.838 45.1756C201.498 41.0042 206.991 36.0329 212.379 36.0329C217.768 36.0329 223.26 41.0042 226.918 45.1756C233.952 53.1935 240.725 65.6558 246.501 81.2167C247.647 84.307 248.75 87.4983 249.807 90.7825C254.906 106.638 242.892 122.819 226.243 122.396C221.647 122.278 217.025 122.221 212.379 122.221C205.306 122.221 198.283 122.357 191.333 122.625C188.306 122.742 185.759 124.929 185.166 127.899C184.227 132.627 183.357 137.536 182.579 142.485C182.117 145.417 181.686 148.404 181.282 151.423C180.739 155.483 184.02 159.026 188.109 158.833C196.099 158.45 204.195 158.256 212.376 158.256C218.335 158.256 224.251 158.357 230.111 158.562C249.733 159.242 265.519 175.027 266.199 194.652C266.401 200.514 266.504 206.43 266.504 212.389C266.504 220.571 266.31 228.668 265.928 236.659C265.732 240.748 269.278 244.029 273.337 243.486C276.356 243.082 279.342 242.651 282.274 242.189C287.226 241.411 292.134 240.541 296.862 239.601C299.832 239.012 302.018 236.462 302.136 233.434C302.403 226.484 302.54 219.46 302.54 212.386C302.54 205.946 302.428 199.547 302.204 193.206C301.721 179.447 314.864 169.234 328.065 173.132C333.465 174.726 338.627 176.435 343.54 178.262C359.1 184.038 371.561 190.809 379.578 197.847C383.749 201.507 388.72 207 388.72 212.386C388.72 217.773 383.749 223.268 379.578 226.929C371.561 233.964 359.1 240.737 343.54 246.514C330.814 251.239 316.412 255.201 300.582 258.345C295.606 259.334 290.491 260.243 285.238 261.067C279.916 261.903 274.513 262.642 269.04 263.287C266.013 263.642 263.633 266.025 263.275 269.052C262.631 274.526 261.891 279.929 261.056 285.252C260.693 287.562 260.313 289.847 259.92 292.104C259.169 296.401 262.726 300.218 267.064 299.765C276.916 298.735 286.53 297.43 295.844 295.855C317.927 292.123 338.31 286.89 356.081 280.294C375.997 272.902 391.9 264.059 403.346 254.013C409.881 248.277 415.002 242.091 418.564 235.627C422.67 228.179 424.753 220.361 424.753 212.386C424.753 204.412 422.67 196.596 418.564 189.146L418.559 189.149Z"
    fill="white" />
  <path
    d="M512.203 213.347C507.083 211.363 505.547 207.843 507.595 202.787L553.291 90.275C555.211 86.051 558.219 83.939 562.315 83.939H562.699C566.859 84.131 569.675 86.243 571.147 90.275L617.611 202.787C619.659 207.843 618.187 211.363 613.195 213.347C608.139 215.331 604.619 213.859 602.635 208.931L592.267 183.779H532.459L522.571 208.931C520.587 213.923 517.131 215.395 512.203 213.347ZM538.795 167.651H585.643L561.739 109.475L538.795 167.651Z"
    fill="#E6EAF0" />
  <path
    d="M667.903 214.115C665.215 214.115 663.199 213.443 661.855 212.099C660.511 210.755 659.839 208.739 659.839 206.051V100.259H622.591C619.903 100.259 617.887 99.587 616.543 98.243C615.199 96.899 614.527 94.883 614.527 92.195C614.527 89.507 615.199 87.491 616.543 86.147C617.887 84.803 619.903 84.131 622.591 84.131H713.215C715.903 84.131 717.919 84.803 719.263 86.147C720.607 87.491 721.279 89.507 721.279 92.195C721.279 94.883 720.607 96.899 719.263 98.243C717.919 99.587 715.903 100.259 713.215 100.259H675.967V206.051C675.967 208.611 675.263 210.595 673.855 212.003C672.511 213.411 670.527 214.115 667.903 214.115Z"
    fill="#E6EAF0" />
  <path
    d="M775.657 214.115C761.001 214.115 750.153 210.627 743.113 203.651C736.137 196.611 732.649 185.763 732.649 171.107V126.755C732.649 111.971 736.169 101.123 743.209 94.211C750.249 87.235 761.065 83.811 775.657 83.939H798.697C813.417 83.939 824.265 87.427 831.241 94.403C838.217 101.379 841.705 112.227 841.705 126.947V171.107C841.705 185.763 838.217 196.611 831.241 203.651C824.265 210.627 813.417 214.115 798.697 214.115H775.657ZM775.657 197.987H798.697C805.545 197.987 810.921 197.187 814.825 195.587C818.729 193.923 821.481 191.139 823.081 187.235C824.745 183.331 825.577 177.955 825.577 171.107V126.947C825.577 120.163 824.745 114.819 823.081 110.915C821.481 107.011 818.729 104.227 814.825 102.563C810.921 100.899 805.545 100.067 798.697 100.067H775.657C768.873 100.003 763.529 100.771 759.625 102.371C755.721 103.971 752.937 106.723 751.273 110.627C749.609 114.531 748.777 119.907 748.777 126.755V171.107C748.777 177.955 749.577 183.331 751.177 187.235C752.841 191.139 755.625 193.923 759.529 195.587C763.433 197.187 768.809 197.987 775.657 197.987Z"
    fill="#E6EAF0" />
  <path
    d="M883.088 214.115C877.712 214.115 875.024 211.427 875.024 206.051V92.003C875.024 86.627 877.712 83.939 883.088 83.939C886.608 83.939 889.552 85.667 891.92 89.123L937.232 157.283L933.776 157.859L979.472 89.123C981.648 85.667 984.912 83.939 989.264 83.939C993.616 83.939 995.792 86.627 995.792 92.003V206.051C995.792 211.427 993.104 214.115 987.728 214.115C982.352 214.115 979.664 211.427 979.664 206.051V108.131L984.656 109.859L944.336 169.187C941.968 172.643 938.704 174.371 934.544 174.371C931.664 174.371 929.04 172.643 926.672 169.187L886.352 109.859L891.152 111.203V206.051C891.152 211.427 888.464 214.115 883.088 214.115Z"
    fill="#E6EAF0" />
  <path
    d="M1041.86 214.115C1039.1 214.115 1037.06 213.475 1035.71 212.195C1034.43 210.851 1033.79 208.803 1033.79 206.051V92.195C1033.79 89.379 1034.43 87.331 1035.71 86.051C1037.06 84.771 1039.1 84.131 1041.86 84.131C1044.67 84.131 1046.72 84.771 1048 86.051C1049.28 87.331 1049.92 89.379 1049.92 92.195V206.051C1049.92 208.803 1049.28 210.851 1048 212.195C1046.72 213.475 1044.67 214.115 1041.86 214.115Z"
    fill="#E6EAF0" />
  <path
    d="M1126.33 214.115C1111.68 214.115 1100.83 210.627 1093.79 203.651C1086.81 196.611 1083.33 185.763 1083.33 171.107V126.947C1083.33 112.163 1086.81 101.283 1093.79 94.307C1100.77 87.267 1111.55 83.811 1126.14 83.939H1149.37C1161.41 83.939 1170.59 86.435 1176.93 91.427C1183.26 96.355 1186.94 104.163 1187.97 114.851C1188.35 117.539 1187.84 119.587 1186.43 120.995C1185.02 122.403 1182.97 123.107 1180.29 123.107C1175.42 123.107 1172.61 120.419 1171.84 115.043C1171.2 109.155 1169.15 105.187 1165.69 103.139C1162.3 101.091 1156.86 100.067 1149.37 100.067H1126.14C1119.36 100.003 1114.01 100.771 1110.11 102.371C1106.27 103.971 1103.52 106.755 1101.85 110.723C1100.25 114.627 1099.45 120.035 1099.45 126.947V171.107C1099.45 177.955 1100.25 183.331 1101.85 187.235C1103.52 191.139 1106.3 193.923 1110.21 195.587C1114.11 197.187 1119.49 197.987 1126.33 197.987H1149.37C1156.86 197.987 1162.3 196.963 1165.69 194.915C1169.15 192.803 1171.2 188.835 1171.84 183.011C1172.61 177.635 1175.42 174.947 1180.29 174.947C1182.97 174.947 1185.02 175.651 1186.43 177.059C1187.84 178.467 1188.35 180.515 1187.97 183.203C1186.94 193.955 1183.26 201.795 1176.93 206.723C1170.59 211.651 1161.41 214.115 1149.37 214.115H1126.33Z"
    fill="#E6EAF0" />
  <path
    d="M1286.22 214.115C1280.84 214.115 1278.16 211.427 1278.16 206.051V92.003C1278.16 86.627 1280.84 83.939 1286.22 83.939C1289.74 83.939 1292.68 85.667 1295.05 89.123L1340.36 157.283L1336.91 157.859L1382.6 89.123C1384.78 85.667 1388.04 83.939 1392.4 83.939C1396.75 83.939 1398.92 86.627 1398.92 92.003V206.051C1398.92 211.427 1396.24 214.115 1390.86 214.115C1385.48 214.115 1382.8 211.427 1382.8 206.051V108.131L1387.79 109.859L1347.47 169.187C1345.1 172.643 1341.84 174.371 1337.68 174.371C1334.8 174.371 1332.17 172.643 1329.8 169.187L1289.48 109.859L1294.28 111.203V206.051C1294.28 211.427 1291.6 214.115 1286.22 214.115Z"
    fill="#E6EAF0" />
  <path
    d="M1444.99 214.115C1439.61 214.115 1436.92 211.427 1436.92 206.051V92.003C1436.92 86.627 1439.61 83.939 1444.99 83.939H1513.92C1519.29 83.939 1521.98 86.627 1521.98 92.003C1521.98 97.379 1519.29 100.067 1513.92 100.067H1453.05V140.387H1491.26C1496.64 140.387 1499.32 143.075 1499.32 148.451C1499.32 153.827 1496.64 156.515 1491.26 156.515H1453.05V197.987H1513.92C1519.29 197.987 1521.98 200.675 1521.98 206.051C1521.98 211.427 1519.29 214.115 1513.92 214.115H1444.99Z"
    fill="#E6EAF0" />
  <path
    d="M1558.76 214.115C1553.38 214.115 1550.69 211.427 1550.69 206.051V92.003C1550.69 86.627 1553.38 83.939 1558.76 83.939C1562.28 83.939 1565.22 85.667 1567.59 89.123L1612.9 157.283L1609.44 157.859L1655.14 89.123C1657.32 85.667 1660.58 83.939 1664.93 83.939C1669.28 83.939 1671.46 86.627 1671.46 92.003V206.051C1671.46 211.427 1668.77 214.115 1663.4 214.115C1658.02 214.115 1655.33 211.427 1655.33 206.051V108.131L1660.32 109.859L1620 169.187C1617.64 172.643 1614.37 174.371 1610.21 174.371C1607.33 174.371 1604.71 172.643 1602.34 169.187L1562.02 109.859L1566.82 111.203V206.051C1566.82 211.427 1564.13 214.115 1558.76 214.115Z"
    fill="#E6EAF0" />
  <path
    d="M1747.86 214.115C1733.2 214.115 1722.36 210.627 1715.32 203.651C1708.34 196.611 1704.85 185.763 1704.85 171.107V126.755C1704.85 111.971 1708.37 101.123 1715.41 94.211C1722.45 87.235 1733.27 83.811 1747.86 83.939H1770.9C1785.62 83.939 1796.47 87.427 1803.44 94.403C1810.42 101.379 1813.91 112.227 1813.91 126.947V171.107C1813.91 185.763 1810.42 196.611 1803.44 203.651C1796.47 210.627 1785.62 214.115 1770.9 214.115H1747.86ZM1747.86 197.987H1770.9C1777.75 197.987 1783.12 197.187 1787.03 195.587C1790.93 193.923 1793.68 191.139 1795.28 187.235C1796.95 183.331 1797.78 177.955 1797.78 171.107V126.947C1797.78 120.163 1796.95 114.819 1795.28 110.915C1793.68 107.011 1790.93 104.227 1787.03 102.563C1783.12 100.899 1777.75 100.067 1770.9 100.067H1747.86C1741.08 100.003 1735.73 100.771 1731.83 102.371C1727.92 103.971 1725.14 106.723 1723.48 110.627C1721.81 114.531 1720.98 119.907 1720.98 126.755V171.107C1720.98 177.955 1721.78 183.331 1723.38 187.235C1725.04 191.139 1727.83 193.923 1731.73 195.587C1735.64 197.187 1741.01 197.987 1747.86 197.987Z"
    fill="#E6EAF0" />
  <path
    d="M1930.94 214.499C1928.83 215.843 1926.81 216.259 1924.89 215.747C1922.97 215.235 1921.34 213.923 1919.99 211.811L1890.23 162.275H1863.35V206.051C1863.35 211.427 1860.67 214.115 1855.29 214.115C1849.91 214.115 1847.23 211.427 1847.23 206.051V92.003C1847.23 86.627 1849.91 83.939 1855.29 83.939H1900.22C1911.93 83.939 1920.89 87.075 1927.1 93.347C1933.37 99.555 1936.51 108.515 1936.51 120.227V125.987C1936.51 136.163 1934.14 144.291 1929.4 150.371C1924.67 156.387 1917.82 160.131 1908.86 161.603L1934.01 203.555C1936.44 208.035 1935.42 211.683 1930.94 214.499ZM1863.35 146.147H1900.22C1907.51 146.147 1912.7 144.611 1915.77 141.539C1918.84 138.467 1920.38 133.283 1920.38 125.987V120.227C1920.38 112.995 1918.84 107.843 1915.77 104.771C1912.7 101.635 1907.51 100.067 1900.22 100.067H1863.35V146.147Z"
    fill="#E6EAF0" />
  <path
    d="M2001.54 214.115C1996.17 214.115 1993.48 211.427 1993.48 206.051V166.883L1949.51 96.803C1946.82 92.195 1947.66 88.419 1952.01 85.475C1956.62 82.659 1960.33 83.491 1963.14 87.971L2001.54 149.603L2041.86 87.971C2043.21 85.859 2044.84 84.611 2046.76 84.227C2048.68 83.779 2050.7 84.323 2052.81 85.859C2057.48 88.739 2058.31 92.387 2055.3 96.803L2009.61 166.883V206.051C2009.61 211.427 2006.92 214.115 2001.54 214.115Z"
    fill="#E6EAF0" />
</svg>