<svg width="512" height="512" viewBox="0 0 512 512" fill="none" xmlns="http://www.w3.org/2000/svg">
<path d="M221.096 475.5H182.506V374.736H221.096V475.5ZM369.805 410.402L356.161 424.047L342.517 437.69L261.049 356.222L288.336 328.935L369.805 410.402ZM146.839 360.509L76.0898 431.258L48.8027 403.971L119.552 333.222L146.839 360.509ZM103.181 297.556H26V258.966H103.181V297.556ZM486.939 297.556H300.42V258.966H486.939V297.556ZM363.373 143.975L284.049 223.299L256.762 196.012L336.086 116.688L363.373 143.975ZM151.127 189.581L123.84 216.868L46.6592 139.688L73.9463 112.4L151.127 189.581ZM221.096 177.498H182.506V36H221.096V177.498Z" fill="#0753FA"/>
</svg>
