<svg xmlns="http://www.w3.org/2000/svg" width="164" height="64" viewBox="0 0 164 64" fill="none">
  <g id="Logo_Black">
    <path
      d="M37.5792 28.8004H32.2627C30.8124 28.8004 29.6373 27.6168 29.6373 26.1559V15.4443C29.6373 13.9835 28.4621 12.7998 27.0118 12.7998H16.3775C14.9272 12.7998 13.752 13.9835 13.752 15.4443V26.1546C13.752 27.6155 12.5769 28.7992 11.1266 28.7992H5.81002C4.35971 28.7992 3.18457 29.9828 3.18457 31.4437V42.1553C3.18457 43.6161 4.35971 44.7998 5.81002 44.7998H16.4444C17.8947 44.7998 19.0698 43.6161 19.0698 42.1553V31.4437C19.0698 29.9828 20.245 28.7992 21.6953 28.7992C23.1456 28.7992 24.3207 29.9828 24.3207 31.4437V42.1553C24.3207 43.6161 25.4959 44.7998 26.9462 44.7998H37.5805C39.0308 44.7998 40.2059 43.6161 40.2059 42.1553V31.4437C40.2059 29.9828 39.0308 28.7992 37.5805 28.7992L37.5792 28.8004Z"
      fill="#3A60E4" />
    <path
      d="M57.3887 34.8886C57.5989 34.8886 57.7708 34.8694 57.9237 34.8118L57.618 36.8662C57.1976 37.0966 56.7391 37.2118 56.2614 37.2118C54.8475 37.2118 53.8348 36.7126 53.51 35.6566C52.975 36.5974 51.8668 37.2118 50.109 37.2118C48.1601 37.2118 47.1475 36.3862 47.1475 34.8694C47.1475 33.2758 48.1601 32.3158 50.8733 31.759L52.8986 31.3366V30.9718C52.8986 30.2422 52.4974 29.8006 51.8095 29.8006C51.1026 29.8006 50.5485 30.0886 50.4338 31.1254L47.2621 30.4534C47.5296 28.4566 49.0581 27.2278 51.9433 27.2278C55.1341 27.2278 56.72 28.495 56.72 31.0486V34.1206C56.72 34.639 56.9492 34.8886 57.3887 34.8886ZM51.6567 34.9462C52.2681 34.9462 52.8986 34.5622 52.8986 33.8134V32.9302L51.8477 33.199C51.179 33.3718 50.8542 33.6982 50.8542 34.1974C50.8542 34.6966 51.179 34.9462 51.6567 34.9462Z"
      fill="#1E252E" />
    <path
      d="M65.3453 34.255L65.5937 36.5206C64.9632 36.943 63.7977 37.2118 62.8232 37.2118C60.3776 37.2118 59.0019 36.3286 59.0019 33.9478V30.0886H57.4542V27.4198H59.0019V25.327L62.8615 24.2518V27.4198H65.4791V30.0886H62.8615V33.3334C62.8615 34.2358 63.2627 34.5814 64.0652 34.5814C64.6002 34.5814 64.9823 34.4662 65.3453 34.255Z"
      fill="#1E252E" />
    <path
      d="M71.2767 27.2278C74.563 27.2278 76.4737 29.071 76.4737 32.2198C76.4737 35.3686 74.563 37.2118 71.2767 37.2118C67.9903 37.2118 66.0796 35.3686 66.0796 32.2198C66.0796 29.071 67.9903 27.2278 71.2767 27.2278ZM71.2767 29.8966C70.3213 29.8966 69.9583 30.4726 69.9583 32.2198C69.9583 33.967 70.3213 34.543 71.2767 34.543C72.232 34.543 72.595 33.967 72.595 32.2198C72.595 30.4726 72.232 29.8966 71.2767 29.8966Z"
      fill="#1E252E" />
    <path
      d="M90.6817 27.2278C92.5542 27.2278 93.8152 28.3798 93.7961 30.5302L93.7388 37.0198H89.9365V31.4902C89.9365 30.4726 89.5926 30.127 88.9812 30.127C88.1978 30.127 87.701 30.7222 87.701 31.951V37.0198H83.8415V31.4902C83.8415 30.4726 83.4975 30.127 82.8861 30.127C82.141 30.127 81.606 30.6838 81.606 31.9702V37.0198H77.7464V27.4198H81.2238L81.3194 29.3974C81.8926 27.9766 83.039 27.2278 84.5866 27.2278C86.0196 27.2278 87.0705 27.8998 87.4909 29.167C88.1023 27.919 89.2296 27.2278 90.6817 27.2278Z"
      fill="#1E252E" />
    <path
      d="M97.3791 26.575C95.8314 26.575 95.22 26.0758 95.22 24.8662C95.22 23.6374 95.8314 23.1382 97.3791 23.1382C98.9267 23.1382 99.5382 23.6374 99.5382 24.8662C99.5382 26.0758 98.9267 26.575 97.3791 26.575ZM99.3089 27.4198V37.0198H95.4493V27.4198H99.3089Z"
      fill="#1E252E" />
    <path
      d="M105.744 27.2278C109.26 27.2278 110.425 28.8022 110.597 30.3574L107.024 31.4518C106.986 30.3958 106.604 29.8966 105.935 29.8966C104.942 29.8966 104.464 30.5494 104.464 32.2582C104.464 34.0438 105.037 34.543 105.916 34.543C106.642 34.543 107.005 34.0438 107.12 33.1414L110.578 34.2358C110.464 35.8678 108.839 37.2118 105.935 37.2118C102.439 37.2118 100.585 35.3878 100.585 32.2198C100.585 29.0518 102.477 27.2278 105.744 27.2278Z"
      fill="#1E252E" />
    <path
      d="M124.702 27.2278C126.575 27.2278 127.836 28.3798 127.817 30.5302L127.759 37.0198H123.957V31.4902C123.957 30.4726 123.613 30.127 123.002 30.127C122.218 30.127 121.722 30.7222 121.722 31.951V37.0198H117.862V31.4902C117.862 30.4726 117.518 30.127 116.907 30.127C116.162 30.127 115.627 30.6838 115.627 31.9702V37.0198H111.767V27.4198H115.244L115.34 29.3974C115.913 27.9766 117.06 27.2278 118.607 27.2278C120.04 27.2278 121.091 27.8998 121.511 29.167C122.123 27.919 123.25 27.2278 124.702 27.2278Z"
      fill="#1E252E" />
    <path
      d="M139.157 31.9894C139.157 32.3734 139.119 32.8534 139.061 33.103H132.794C132.947 34.2166 133.501 34.5622 134.419 34.5622C135.202 34.5622 135.68 34.2358 135.852 33.6406L138.966 34.543C138.469 36.3286 136.692 37.2118 134.419 37.2118C130.922 37.2118 129.069 35.3878 129.069 32.2198C129.069 29.0518 130.941 27.2278 134.208 27.2278C137.456 27.2278 139.157 29.0902 139.157 31.9894ZM134.227 29.8582C133.387 29.8582 132.928 30.2998 132.775 31.4134H135.546C135.431 30.3958 135.03 29.8582 134.227 29.8582Z"
      fill="#1E252E" />
    <path
      d="M153.353 27.2278C155.226 27.2278 156.487 28.3798 156.468 30.5302L156.411 37.0198H152.608V31.4902C152.608 30.4726 152.264 30.127 151.653 30.127C150.87 30.127 150.373 30.7222 150.373 31.951V37.0198H146.513V31.4902C146.513 30.4726 146.169 30.127 145.558 30.127C144.813 30.127 144.278 30.6838 144.278 31.9702V37.0198H140.418V27.4198H143.896L143.991 29.3974C144.564 27.9766 145.711 27.2278 147.258 27.2278C148.691 27.2278 149.742 27.8998 150.163 29.167C150.774 27.919 151.901 27.2278 153.353 27.2278Z"
      fill="#1E252E" />
  </g>
</svg>