<svg xmlns="http://www.w3.org/2000/svg" width="110" height="15" viewBox="0 0 110 15" fill="none">
  <g id="Wordmark">
    <path
      d="M10.2412 11.7504C10.4514 11.7504 10.6234 11.7312 10.7762 11.6736L10.4705 13.728C10.0502 13.9584 9.59161 14.0736 9.11394 14.0736C7.70004 14.0736 6.68738 13.5744 6.36256 12.5184C5.82757 13.4592 4.71938 14.0736 2.96155 14.0736C1.01266 14.0736 0 13.248 0 11.7312C0 10.1376 1.01266 9.1776 3.72583 8.6208L5.75115 8.1984V7.8336C5.75115 7.104 5.3499 6.6624 4.66206 6.6624C3.95511 6.6624 3.40101 6.9504 3.28637 7.9872L0.114641 7.3152C0.382136 5.3184 1.91068 4.0896 4.79581 4.0896C7.98664 4.0896 9.57251 5.3568 9.57251 7.9104V10.9824C9.57251 11.5008 9.80179 11.7504 10.2412 11.7504ZM4.5092 11.808C5.12062 11.808 5.75115 11.424 5.75115 10.6752V9.792L4.70027 10.0608C4.03153 10.2336 3.70672 10.56 3.70672 11.0592C3.70672 11.5584 4.03153 11.808 4.5092 11.808Z"
      fill="#1E252E" />
    <path
      d="M18.1979 11.1168L18.4463 13.3824C17.8157 13.8048 16.6502 14.0736 15.6758 14.0736C13.2301 14.0736 11.8544 13.1904 11.8544 10.8096V6.9504H10.3068V4.2816H11.8544V2.1888L15.714 1.1136V4.2816H18.3316V6.9504H15.714V10.1952C15.714 11.0976 16.1152 11.4432 16.9177 11.4432C17.4527 11.4432 17.8349 11.328 18.1979 11.1168Z"
      fill="#1E252E" />
    <path
      d="M24.1292 4.0896C27.4156 4.0896 29.3262 5.9328 29.3262 9.0816C29.3262 12.2304 27.4156 14.0736 24.1292 14.0736C20.8428 14.0736 18.9321 12.2304 18.9321 9.0816C18.9321 5.9328 20.8428 4.0896 24.1292 4.0896ZM24.1292 6.7584C23.1739 6.7584 22.8108 7.3344 22.8108 9.0816C22.8108 10.8288 23.1739 11.4048 24.1292 11.4048C25.0845 11.4048 25.4476 10.8288 25.4476 9.0816C25.4476 7.3344 25.0845 6.7584 24.1292 6.7584Z"
      fill="#1E252E" />
    <path
      d="M43.5342 4.0896C45.4067 4.0896 46.6678 5.2416 46.6486 7.392L46.5913 13.8816H42.7891V8.352C42.7891 7.3344 42.4452 6.9888 41.8337 6.9888C41.0504 6.9888 40.5536 7.584 40.5536 8.8128V13.8816H36.694V8.352C36.694 7.3344 36.3501 6.9888 35.7387 6.9888C34.9935 6.9888 34.4585 7.5456 34.4585 8.832V13.8816H30.5989V4.2816H34.0764L34.1719 6.2592C34.7451 4.8384 35.8915 4.0896 37.4392 4.0896C38.8722 4.0896 39.9231 4.7616 40.3434 6.0288C40.9548 4.7808 42.0821 4.0896 43.5342 4.0896Z"
      fill="#1E252E" />
    <path
      d="M50.2316 3.4368C48.684 3.4368 48.0726 2.9376 48.0726 1.728C48.0726 0.4992 48.684 0 50.2316 0C51.7793 0 52.3907 0.4992 52.3907 1.728C52.3907 2.9376 51.7793 3.4368 50.2316 3.4368ZM52.1614 4.2816V13.8816H48.3018V4.2816H52.1614Z"
      fill="#1E252E" />
    <path
      d="M58.5967 4.0896C62.1123 4.0896 63.2778 5.664 63.4498 7.2192L59.8768 8.3136C59.8386 7.2576 59.4565 6.7584 58.7877 6.7584C57.7942 6.7584 57.3165 7.4112 57.3165 9.12C57.3165 10.9056 57.8897 11.4048 58.7686 11.4048C59.4947 11.4048 59.8577 10.9056 59.9724 10.0032L63.4307 11.0976C63.316 12.7296 61.692 14.0736 58.7877 14.0736C55.2912 14.0736 53.4378 12.2496 53.4378 9.0816C53.4378 5.9136 55.3294 4.0896 58.5967 4.0896Z"
      fill="#1E252E" />
    <path
      d="M77.5548 4.0896C79.4273 4.0896 80.6883 5.2416 80.6692 7.392L80.6119 13.8816H76.8096V8.352C76.8096 7.3344 76.4657 6.9888 75.8543 6.9888C75.0709 6.9888 74.5741 7.584 74.5741 8.8128V13.8816H70.7146V8.352C70.7146 7.3344 70.3706 6.9888 69.7592 6.9888C69.014 6.9888 68.4791 7.5456 68.4791 8.832V13.8816H64.6195V4.2816H68.0969L68.1925 6.2592C68.7657 4.8384 69.9121 4.0896 71.4597 4.0896C72.8927 4.0896 73.9436 4.7616 74.3639 6.0288C74.9754 4.7808 76.1027 4.0896 77.5548 4.0896Z"
      fill="#1E252E" />
    <path
      d="M92.0095 8.8512C92.0095 9.2352 91.9713 9.7152 91.914 9.9648H85.647C85.7998 11.0784 86.3539 11.424 87.271 11.424C88.0544 11.424 88.5321 11.0976 88.704 10.5024L91.8185 11.4048C91.3217 13.1904 89.5448 14.0736 87.271 14.0736C83.7745 14.0736 81.9211 12.2496 81.9211 9.0816C81.9211 5.9136 83.7936 4.0896 87.0609 4.0896C90.309 4.0896 92.0095 5.952 92.0095 8.8512ZM87.08 6.72C86.2393 6.72 85.7807 7.1616 85.6279 8.2752H88.3983C88.2837 7.2576 87.8825 6.72 87.08 6.72Z"
      fill="#1E252E" />
    <path
      d="M106.206 4.0896C108.078 4.0896 109.34 5.2416 109.32 7.392L109.263 13.8816H105.461V8.352C105.461 7.3344 105.117 6.9888 104.506 6.9888C103.722 6.9888 103.225 7.584 103.225 8.8128V13.8816H99.3658V8.352C99.3658 7.3344 99.0219 6.9888 98.4105 6.9888C97.6653 6.9888 97.1303 7.5456 97.1303 8.832V13.8816H93.2707V4.2816H96.7482L96.8437 6.2592C97.4169 4.8384 98.5633 4.0896 100.111 4.0896C101.544 4.0896 102.595 4.7616 103.015 6.0288C103.627 4.7808 104.754 4.0896 106.206 4.0896Z"
      fill="#1E252E" />
  </g>
</svg>