<svg width="532" height="113" viewBox="0 0 532 113" fill="none" xmlns="http://www.w3.org/2000/svg">
<g clip-path="url(#clip0_282_17414)">
<path d="M188.511 55.5363C186.343 55.5363 184.469 55.197 182.888 54.5183C181.308 53.8397 180.088 52.7086 179.23 51.1251C178.372 49.5416 177.943 47.3925 177.943 44.6779L177.943 27.1009H172.049L172.049 21.3324H177.943L178.756 12.7814L184.717 12.7814V21.3324H194.405V27.1009L184.717 27.1009L184.717 44.7458C184.717 46.6912 185.124 48.0259 185.937 48.7498C186.75 49.4285 188.15 49.7678 190.137 49.7678H194.066V55.5363H188.511Z" fill="#121216"/>
<path d="M213.82 56.3507C210.614 56.3507 207.723 55.6042 205.149 54.1111C202.62 52.6181 200.61 50.5369 199.12 47.8676C197.675 45.153 196.952 42.0312 196.952 38.5022C196.952 34.8827 197.697 31.7383 199.188 29.069C200.678 26.3544 202.71 24.2506 205.285 22.7575C207.859 21.2645 210.749 20.518 213.956 20.518C217.208 20.518 220.098 21.2645 222.627 22.7575C225.156 24.2506 227.143 26.3318 228.589 29.0011C230.079 31.6705 230.824 34.8149 230.824 38.4343C230.824 42.0538 230.079 45.1982 228.589 47.8676C227.143 50.5369 225.134 52.6181 222.559 54.1111C219.985 55.6042 217.072 56.3507 213.82 56.3507ZM213.82 50.5143C215.672 50.5143 217.343 50.0619 218.834 49.157C220.369 48.2521 221.588 46.9175 222.492 45.153C223.44 43.3432 223.914 41.1037 223.914 38.4343C223.914 35.765 223.463 33.5481 222.559 31.7836C221.656 29.9738 220.437 28.6165 218.901 27.7117C217.411 26.8068 215.762 26.3544 213.956 26.3544C212.149 26.3544 210.478 26.8068 208.943 27.7117C207.407 28.6165 206.165 29.9738 205.217 31.7836C204.314 33.5481 203.862 35.765 203.862 38.4343C203.862 41.1037 204.314 43.3432 205.217 45.153C206.165 46.9175 207.385 48.2521 208.875 49.157C210.411 50.0619 212.059 50.5143 213.82 50.5143Z" fill="#121216"/>
<path d="M234.728 55.5363V21.3324L240.825 21.3324L241.3 26.1508C242.384 24.3863 243.829 23.0064 245.635 22.011C247.442 21.0157 249.474 20.518 251.732 20.518C253.448 20.518 255.007 20.7668 256.407 21.2645C257.807 21.7169 259.049 22.4182 260.133 23.3683C261.216 24.3184 262.097 25.4948 262.775 26.8973C263.994 24.9066 265.62 23.3457 267.652 22.2146C269.73 21.0835 271.92 20.518 274.223 20.518C276.978 20.518 279.349 21.0835 281.336 22.2146C283.324 23.3005 284.837 24.9518 285.875 27.1688C286.914 29.3404 287.433 32.055 287.433 35.3126V55.5363H280.727V35.9912C280.727 32.8242 280.072 30.4263 278.762 28.7975C277.498 27.1688 275.623 26.3544 273.139 26.3544C271.468 26.3544 269.978 26.7842 268.668 27.6438C267.359 28.5034 266.32 29.7476 265.552 31.3764C264.829 33.0051 264.468 34.9959 264.468 37.3485V55.5363H257.694V35.9912C257.694 32.8242 257.039 30.4263 255.729 28.7975C254.465 27.1688 252.59 26.3544 250.106 26.3544C248.526 26.3544 247.081 26.7842 245.771 27.6438C244.461 28.5034 243.422 29.7476 242.655 31.3764C241.887 33.0051 241.503 34.9959 241.503 37.3485L241.503 55.5363H234.728Z" fill="#121216"/>
<path d="M293.275 55.5363V21.3324L300.049 21.3324V55.5363H293.275ZM296.73 14.8852C295.42 14.8852 294.336 14.478 293.478 13.6636C292.665 12.8493 292.259 11.8087 292.259 10.5419C292.259 9.32028 292.665 8.32493 293.478 7.5558C294.336 6.74142 295.42 6.33423 296.73 6.33423C297.994 6.33423 299.056 6.74142 299.914 7.5558C300.772 8.32493 301.201 9.32028 301.201 10.5419C301.201 11.8087 300.772 12.8493 299.914 13.6636C299.056 14.478 297.994 14.8852 296.73 14.8852Z" fill="#121216"/>
<path d="M322.134 56.3507C318.837 56.3507 315.901 55.6042 313.327 54.1112C310.753 52.5729 308.72 50.4691 307.23 47.7997C305.785 45.1304 305.062 42.0312 305.062 38.5022C305.062 34.928 305.785 31.8062 307.23 29.1369C308.72 26.4223 310.753 24.3184 313.327 22.8254C315.901 21.2871 318.837 20.518 322.134 20.518C326.289 20.518 329.766 21.6038 332.566 23.7755C335.366 25.9472 337.15 28.888 337.918 32.598H330.873C330.421 30.6073 329.382 29.069 327.756 27.9831C326.176 26.8973 324.279 26.3544 322.066 26.3544C320.259 26.3544 318.588 26.8294 317.053 27.7796C315.517 28.6844 314.275 30.0417 313.327 31.8514C312.424 33.6159 311.972 35.8102 311.972 38.4343C311.972 40.3798 312.243 42.1217 312.785 43.66C313.327 45.153 314.05 46.4198 314.953 47.4604C315.901 48.501 316.985 49.2927 318.205 49.8357C319.424 50.3333 320.711 50.5822 322.066 50.5822C323.556 50.5822 324.889 50.356 326.063 49.9035C327.282 49.4058 328.298 48.682 329.111 47.7318C329.969 46.7817 330.557 45.6507 330.873 44.3386H337.918C337.15 47.9581 335.366 50.8763 332.566 53.0932C329.766 55.2649 326.289 56.3507 322.134 56.3507Z" fill="#121216"/>
<path d="M374.288 56.3507C370.81 56.3507 367.762 55.7399 365.142 54.5183C362.523 53.2515 360.49 51.487 359.045 49.2249C357.6 46.9627 356.877 44.316 356.877 41.2847H363.991C364.036 43.0039 364.442 44.5874 365.21 46.0352C366.023 47.4378 367.175 48.5689 368.665 49.4285C370.2 50.2429 372.075 50.65 374.288 50.65C376.184 50.65 377.81 50.3333 379.165 49.6999C380.565 49.0665 381.627 48.2069 382.349 47.1211C383.072 45.99 383.433 44.7006 383.433 43.2528C383.433 41.5788 383.049 40.1988 382.281 39.113C381.514 38.0272 380.475 37.1449 379.165 36.4663C377.901 35.7424 376.41 35.109 374.694 34.5661C373.023 34.0231 371.262 33.435 369.41 32.8016C365.662 31.58 362.861 29.9965 361.01 28.051C359.203 26.1056 358.3 23.5719 358.3 20.4501C358.3 17.7808 358.932 15.4734 360.197 13.5279C361.461 11.5372 363.223 9.99894 365.481 8.9131C367.784 7.78202 370.494 7.21648 373.61 7.21648C376.681 7.21648 379.368 7.78202 381.672 8.9131C383.975 10.0442 385.782 11.6051 387.091 13.5958C388.401 15.5865 389.056 17.9165 389.056 20.5859L381.875 20.5859C381.875 19.3643 381.559 18.1654 380.927 16.989C380.294 15.8127 379.346 14.8626 378.081 14.1387C376.817 13.3696 375.259 12.985 373.407 12.985C371.871 12.9398 370.494 13.1886 369.275 13.7315C368.055 14.2744 367.107 15.0662 366.429 16.1068C365.752 17.1474 365.413 18.3916 365.413 19.8394C365.413 21.2871 365.707 22.4635 366.294 23.3683C366.926 24.228 367.829 24.9745 369.004 25.6079C370.178 26.2413 371.533 26.8294 373.068 27.3724C374.649 27.87 376.388 28.4356 378.285 29.069C380.633 29.8381 382.711 30.7882 384.517 31.9193C386.369 33.0052 387.814 34.4303 388.853 36.1948C389.937 37.9141 390.478 40.131 390.478 42.8456C390.478 45.1982 389.869 47.3925 388.649 49.4285C387.43 51.4644 385.624 53.1384 383.23 54.4505C380.836 55.7173 377.856 56.3507 374.288 56.3507Z" fill="#121216"/>
<path d="M409.577 55.5363C407.409 55.5363 405.534 55.197 403.954 54.5184C402.373 53.8397 401.154 52.7086 400.296 51.1251C399.437 49.5416 399.008 47.3925 399.008 44.6779V27.1009H393.115V21.3324H399.008L399.821 12.7814L405.783 12.7814V21.3324L415.47 21.3324V27.1009H405.783V44.7458C405.783 46.6913 406.189 48.0259 407.002 48.7498C407.815 49.4285 409.215 49.7678 411.202 49.7678H415.132V55.5363H409.577Z" fill="#121216"/>
<path d="M420.231 55.5363V21.3324H426.328L426.938 27.7796C427.705 26.2413 428.699 24.9519 429.918 23.9113C431.138 22.8254 432.56 21.9884 434.186 21.4003C435.857 20.8121 437.754 20.518 439.877 20.518V27.7117H437.438C436.038 27.7117 434.705 27.8927 433.441 28.2546C432.176 28.5713 431.047 29.1369 430.054 29.9512C429.105 30.7656 428.36 31.8741 427.818 33.2766C427.276 34.6792 427.005 36.421 427.005 38.5022V55.5363L420.231 55.5363Z" fill="#121216"/>
<path d="M454.024 56.3507C451.224 56.3507 448.898 55.8757 447.046 54.9255C445.195 53.9754 443.817 52.7086 442.914 51.1251C442.011 49.4963 441.559 47.7545 441.559 45.8995C441.559 43.6373 442.146 41.7145 443.32 40.131C444.495 38.5022 446.166 37.258 448.334 36.3984C450.501 35.5388 453.098 35.109 456.124 35.109H464.999C464.999 33.1183 464.705 31.4669 464.118 30.1548C463.531 28.8428 462.65 27.8701 461.476 27.2366C460.347 26.558 458.902 26.2187 457.14 26.2187C455.108 26.2187 453.369 26.7163 451.924 27.7117C450.479 28.6618 449.576 30.087 449.214 31.9872H442.44C442.711 29.5893 443.524 27.5533 444.879 25.8793C446.279 24.1601 448.063 22.848 450.23 21.9432C452.398 20.9931 454.702 20.518 457.14 20.518C460.347 20.518 463.034 21.0836 465.202 22.2146C467.37 23.3457 468.995 24.9519 470.079 27.0331C471.208 29.069 471.773 31.5121 471.773 34.3625V55.5363H465.879L465.337 49.7678C464.841 50.6727 464.253 51.5323 463.576 52.3467C462.899 53.1611 462.086 53.8623 461.137 54.4505C460.234 55.0387 459.173 55.4911 457.953 55.8078C456.779 56.1697 455.469 56.3507 454.024 56.3507ZM455.311 50.8536C456.756 50.8536 458.066 50.5596 459.24 49.9714C460.415 49.3832 461.408 48.5915 462.221 47.5961C463.079 46.5555 463.711 45.4018 464.118 44.135C464.57 42.823 464.818 41.4883 464.863 40.131V39.9274H456.802C454.86 39.9274 453.279 40.1762 452.059 40.6739C450.885 41.1263 450.027 41.7597 449.485 42.5741C448.943 43.3885 448.672 44.3386 448.672 45.4245C448.672 46.5555 448.921 47.5283 449.417 48.3426C449.959 49.1118 450.727 49.7226 451.721 50.175C452.714 50.6274 453.911 50.8536 455.311 50.8536Z" fill="#121216"/>
<path d="M491.751 55.5363C489.583 55.5363 487.709 55.197 486.128 54.5184C484.547 53.8397 483.328 52.7086 482.47 51.1251C481.612 49.5416 481.183 47.3925 481.183 44.6779V27.1009L475.289 27.1009V21.3324H481.183L481.995 12.7814L487.957 12.7814V21.3324L497.644 21.3324V27.1009H487.957V44.7458C487.957 46.6913 488.363 48.0259 489.176 48.7498C489.989 49.4285 491.389 49.7678 493.377 49.7678H497.306V55.5363H491.751Z" fill="#121216"/>
<path d="M513.718 56.3507C510.918 56.3507 508.592 55.8757 506.741 54.9255C504.889 53.9754 503.511 52.7086 502.608 51.1251C501.705 49.4964 501.253 47.7545 501.253 45.8995C501.253 43.6373 501.84 41.7145 503.015 40.131C504.189 38.5022 505.86 37.258 508.028 36.3984C510.196 35.5388 512.792 35.109 515.818 35.109H524.693C524.693 33.1183 524.399 31.4669 523.812 30.1548C523.225 28.8428 522.344 27.8701 521.17 27.2367C520.041 26.558 518.596 26.2187 516.834 26.2187C514.802 26.2187 513.063 26.7164 511.618 27.7117C510.173 28.6618 509.27 30.087 508.908 31.9872H502.134C502.405 29.5893 503.218 27.5534 504.573 25.8794C505.973 24.1601 507.757 22.848 509.925 21.9432C512.092 20.9931 514.396 20.518 516.834 20.518C520.041 20.518 522.728 21.0836 524.896 22.2146C527.064 23.3457 528.69 24.9519 529.774 27.0331C530.903 29.069 531.467 31.5121 531.467 34.3625V55.5363H525.573L525.031 49.7678C524.535 50.6727 523.948 51.5323 523.27 52.3467C522.593 53.1611 521.78 53.8623 520.831 54.4505C519.928 55.0387 518.867 55.4911 517.647 55.8078C516.473 56.1697 515.163 56.3507 513.718 56.3507ZM515.005 50.8537C516.451 50.8537 517.76 50.5596 518.935 49.9714C520.109 49.3832 521.102 48.5915 521.915 47.5961C522.773 46.5555 523.406 45.4018 523.812 44.135C524.264 42.823 524.512 41.4883 524.557 40.131V39.9274L516.496 39.9274C514.554 39.9274 512.973 40.1762 511.754 40.6739C510.579 41.1263 509.721 41.7597 509.179 42.5741C508.637 43.3885 508.366 44.3386 508.366 45.4245C508.366 46.5555 508.615 47.5283 509.112 48.3426C509.654 49.1118 510.421 49.7226 511.415 50.175C512.408 50.6274 513.605 50.8537 515.005 50.8537Z" fill="#121216"/>
<path fill-rule="evenodd" clip-rule="evenodd" d="M132.229 55.5363L149.639 8.03084L157.023 8.03084L174.433 55.5363H167.184L163.042 43.7957H143.504L139.342 55.5363H132.229ZM153.297 16.1746L161.127 38.3665L145.429 38.3665L153.297 16.1746Z" fill="#121216"/>
<path d="M34.0163 45.4481L27.7631 51.7012L5.09106 29.0292L11.3442 22.7771L34.0163 45.4481Z" fill="#FF4A1D"/>
<path d="M23.3776 69.019H0V60.1133H23.3776V69.019Z" fill="#FF4A1D"/>
<path d="M0 69.019H23.3776V60.1133H0V69.019Z" fill="#FF4A1D"/>
<path d="M33.3244 83.0637L14.0464 102.342L7.79321 96.0886L27.0713 76.8105L33.3244 83.0637Z" fill="#FF4A1D"/>
<path d="M50.0947 112.435H41.189V86.8308H50.0947V112.435Z" fill="#FF4A1D"/>
<path d="M86.9206 98.3533L80.6674 104.607L58.4683 82.4084L64.7214 76.1553L86.9206 98.3533Z" fill="#FF4A1D"/>
<path d="M117.439 69.0812H67.1079V60.1992H117.439V69.0812Z" fill="#FF4A1D"/>
<path d="M84.6881 31.4106L63.7327 52.365L57.4795 46.113L78.435 25.1575L84.6881 31.4106Z" fill="#FF4A1D"/>
<path d="M50.0947 42.3023H41.189V0H50.0947V42.3023Z" fill="#FF4A1D"/>
<path d="M134.791 101.718V76.45H139.917L148.003 92.7661L156.017 76.45H161.179V101.718H156.847V83.8861L149.7 98.1807H146.307L139.123 83.9222V101.718H134.791ZM174.681 102.151C172.876 102.151 171.288 101.766 169.916 100.996C168.544 100.202 167.473 99.0952 166.703 97.6753C165.933 96.2555 165.548 94.6191 165.548 92.7661C165.548 90.8409 165.921 89.1563 166.667 87.7124C167.437 86.2685 168.508 85.1375 169.88 84.3193C171.276 83.5011 172.888 83.092 174.717 83.092C176.498 83.092 178.05 83.489 179.374 84.2832C180.697 85.0773 181.72 86.1482 182.442 87.4959C183.164 88.8194 183.525 90.3115 183.525 91.9719C183.525 92.2126 183.525 92.4773 183.525 92.7661C183.525 93.0549 183.501 93.3557 183.453 93.6685H168.653V90.889H179.157C179.109 89.5654 178.664 88.5307 177.821 87.7846C176.979 87.0146 175.932 86.6295 174.681 86.6295C173.79 86.6295 172.972 86.8341 172.226 87.2432C171.48 87.6523 170.891 88.2659 170.457 89.0841C170.024 89.8783 169.808 90.889 169.808 92.1163V93.1632C169.808 94.2942 170.012 95.2688 170.421 96.0871C170.854 96.9053 171.432 97.531 172.154 97.9641C172.9 98.3732 173.73 98.5778 174.645 98.5778C175.655 98.5778 176.486 98.3612 177.135 97.928C177.809 97.4949 178.303 96.9173 178.615 96.1953H183.019C182.682 97.3264 182.129 98.3492 181.359 99.2636C180.589 100.154 179.638 100.864 178.507 101.393C177.376 101.899 176.101 102.151 174.681 102.151ZM187.524 101.718V83.5251H191.351L191.712 86.0159C192.289 85.1014 193.047 84.3915 193.986 83.8861C194.948 83.3567 196.043 83.092 197.271 83.092C198.185 83.092 199.003 83.2123 199.725 83.4529C200.471 83.6936 201.121 84.0546 201.674 84.5359C202.252 85.0172 202.721 85.6188 203.082 86.3407C203.756 85.33 204.634 84.5359 205.717 83.9583C206.8 83.3807 207.979 83.092 209.255 83.092C210.771 83.092 212.058 83.4048 213.117 84.0305C214.176 84.6321 214.982 85.5346 215.536 86.7378C216.089 87.917 216.366 89.3729 216.366 91.1056V101.718H212.07V91.5388C212.07 89.9986 211.758 88.8194 211.132 88.0012C210.506 87.183 209.58 86.7739 208.352 86.7739C207.51 86.7739 206.764 86.9785 206.114 87.3876C205.489 87.7967 204.995 88.3983 204.634 89.1924C204.273 89.9625 204.093 90.9131 204.093 92.0441V101.718H199.797V91.5388C199.797 89.9986 199.484 88.8194 198.859 88.0012C198.233 87.183 197.295 86.7739 196.043 86.7739C195.249 86.7739 194.527 86.9785 193.877 87.3876C193.252 87.7967 192.758 88.3983 192.397 89.1924C192.036 89.9625 191.856 90.9131 191.856 92.0441V101.718H187.524ZM229.425 102.151C227.693 102.151 226.129 101.754 224.733 100.96C223.361 100.142 222.278 99.023 221.484 97.6031C220.714 96.1593 220.329 94.5108 220.329 92.6578C220.329 90.7567 220.726 89.0962 221.52 87.6763C222.314 86.2324 223.397 85.1134 224.769 84.3193C226.165 83.5011 227.729 83.092 229.462 83.092C231.194 83.092 232.746 83.5011 234.118 84.3193C235.514 85.1134 236.597 86.2204 237.367 87.6402C238.161 89.0601 238.558 90.7206 238.558 92.6217C238.558 94.5228 238.161 96.1833 237.367 97.6031C236.573 99.023 235.478 100.142 234.082 100.96C232.71 101.754 231.158 102.151 229.425 102.151ZM229.425 98.4334C230.292 98.4334 231.074 98.2168 231.772 97.7836C232.494 97.3505 233.071 96.7007 233.504 95.8344C233.938 94.968 234.154 93.8971 234.154 92.6217C234.154 91.3463 233.938 90.2874 233.504 89.4451C233.095 88.5788 232.53 87.929 231.808 87.4959C231.11 87.0627 230.328 86.8461 229.462 86.8461C228.619 86.8461 227.837 87.0627 227.115 87.4959C226.393 87.929 225.816 88.5788 225.383 89.4451C224.949 90.2874 224.733 91.3463 224.733 92.6217C224.733 93.8971 224.949 94.968 225.383 95.8344C225.816 96.7007 226.381 97.3505 227.079 97.7836C227.801 98.2168 228.583 98.4334 229.425 98.4334ZM242.798 101.718V83.5251H246.661L247.058 86.9183C247.491 86.1242 248.033 85.4503 248.682 84.8968C249.332 84.3193 250.09 83.8741 250.956 83.5612C251.847 83.2484 252.822 83.092 253.88 83.092V87.6763H252.364C251.642 87.6763 250.956 87.7726 250.307 87.9651C249.657 88.1336 249.091 88.4224 248.61 88.8315C248.153 89.2165 247.792 89.758 247.527 90.4559C247.263 91.1297 247.13 91.984 247.13 93.0188V101.718H242.798ZM259.348 109.66L263.788 99.6968H262.705L255.449 83.5251H260.178L265.593 95.8705L270.718 83.5251H275.303L263.932 109.66H259.348Z" fill="#FF4A1D"/>
</g>
<defs>
<clipPath id="clip0_282_17414">
<rect width="531.467" height="112.718" fill="white"/>
</clipPath>
</defs>
</svg>
