<svg width="1634" height="203" viewBox="0 0 1634 203" fill="none" xmlns="http://www.w3.org/2000/svg">
<path d="M382.286 161L375.903 137.367H341.229L334.674 161H299.482L337.779 47.1455H380.043L418.512 161H382.286ZM347.439 114.596H369.693L363.655 91.9973L358.825 73.3666H358.48L353.822 91.8248L347.439 114.596Z" fill="#1E252E"/>
<path d="M484.609 136.159L486.852 156.515C481.159 160.31 470.636 162.725 461.838 162.725C439.757 162.725 427.337 154.79 427.337 133.399V98.7251H413.364V74.7466H427.337V55.9434L462.183 46.283V74.7466H485.817V98.7251H462.183V127.879C462.183 135.987 465.806 139.092 473.051 139.092C477.881 139.092 481.332 138.057 484.609 136.159Z" fill="#1E252E"/>
<path d="M538.16 73.0216C567.832 73.0216 585.082 89.5822 585.082 117.873C585.082 146.164 567.832 162.725 538.16 162.725C508.489 162.725 491.239 146.164 491.239 117.873C491.239 89.5822 508.489 73.0216 538.16 73.0216ZM538.16 97C529.535 97 526.257 102.175 526.257 117.873C526.257 133.571 529.535 138.747 538.16 138.747C546.786 138.747 550.063 133.571 550.063 117.873C550.063 102.175 546.786 97 538.16 97Z" fill="#1E252E"/>
<path d="M713.36 73.0216C730.266 73.0216 741.651 83.372 741.478 102.693L740.961 161H706.632V111.318C706.632 102.175 703.527 99.0701 698.007 99.0701C690.934 99.0701 686.449 104.418 686.449 115.458V161H651.602V111.318C651.602 102.175 648.497 99.0701 642.977 99.0701C636.249 99.0701 631.419 104.073 631.419 115.631V161H596.573V74.7466H627.969L628.832 92.5148C634.007 79.7493 644.357 73.0216 658.33 73.0216C671.268 73.0216 680.756 79.0593 684.551 90.4447C690.071 79.2318 700.249 73.0216 713.36 73.0216Z" fill="#1E252E"/>
<path d="M773.828 67.1563C759.854 67.1563 754.334 62.6711 754.334 51.8032C754.334 40.7628 759.854 36.2776 773.828 36.2776C787.801 36.2776 793.321 40.7628 793.321 51.8032C793.321 62.6711 787.801 67.1563 773.828 67.1563ZM791.251 74.7466V161H756.404V74.7466H791.251Z" fill="#1E252E"/>
<path d="M849.352 73.0216C881.093 73.0216 891.616 87.1671 893.169 101.14L860.91 110.973C860.565 101.485 857.115 97 851.077 97C842.106 97 837.794 102.865 837.794 118.218C837.794 134.261 842.969 138.747 850.904 138.747C857.46 138.747 860.737 134.261 861.772 126.154L892.996 135.987C891.961 150.65 877.298 162.725 851.077 162.725C819.508 162.725 802.775 146.337 802.775 117.873C802.775 89.4097 819.853 73.0216 849.352 73.0216Z" fill="#1E252E"/>
<path d="M1089.62 47.1455V161H1058.57V115.458L1059.26 78.7143H1058.92L1033.9 161H1005.61L980.943 78.7143H980.426L981.116 115.458V161H950.065V47.1455H999.747L1015.1 101.14L1020.79 123.739H1021.14L1026.83 101.14L1042.18 47.1455H1089.62Z" fill="#1E252E"/>
<path d="M1193.77 115.803C1193.77 119.253 1193.43 123.566 1192.91 125.809H1136.33C1137.71 135.814 1142.71 138.919 1150.99 138.919C1158.06 138.919 1162.37 135.987 1163.93 130.639L1192.05 138.747C1187.56 154.79 1171.52 162.725 1150.99 162.725C1119.42 162.725 1102.69 146.337 1102.69 117.873C1102.69 89.4097 1119.59 73.0216 1149.09 73.0216C1178.42 73.0216 1193.77 89.7547 1193.77 115.803ZM1149.26 96.655C1141.67 96.655 1137.53 100.623 1136.15 110.628H1161.17C1160.13 101.485 1156.51 96.655 1149.26 96.655Z" fill="#1E252E"/>
<path d="M1321.94 73.0216C1338.85 73.0216 1350.24 83.372 1350.06 102.693L1349.55 161H1315.22V111.318C1315.22 102.175 1312.11 99.0701 1306.59 99.0701C1299.52 99.0701 1295.03 104.418 1295.03 115.458V161H1260.19V111.318C1260.19 102.175 1257.08 99.0701 1251.56 99.0701C1244.83 99.0701 1240 104.073 1240 115.631V161H1205.16V74.7466H1236.55L1237.42 92.5148C1242.59 79.7493 1252.94 73.0216 1266.92 73.0216C1279.85 73.0216 1289.34 79.0593 1293.14 90.4447C1298.66 79.2318 1308.83 73.0216 1321.94 73.0216Z" fill="#1E252E"/>
<path d="M1408.29 73.0216C1437.96 73.0216 1455.21 89.5822 1455.21 117.873C1455.21 146.164 1437.96 162.725 1408.29 162.725C1378.62 162.725 1361.37 146.164 1361.37 117.873C1361.37 89.5822 1378.62 73.0216 1408.29 73.0216ZM1408.29 97C1399.66 97 1396.39 102.175 1396.39 117.873C1396.39 133.571 1399.66 138.747 1408.29 138.747C1416.91 138.747 1420.19 133.571 1420.19 117.873C1420.19 102.175 1416.91 97 1408.29 97Z" fill="#1E252E"/>
<path d="M1524.66 73.0216C1529.49 73.0216 1532.25 74.0566 1533.81 75.0916L1530.53 103.9C1528.46 102.348 1524.32 101.313 1519.66 101.313C1509.31 101.313 1501.55 107.005 1501.55 118.563V161H1466.7V74.7466H1497.92L1498.96 94.7574C1502.93 81.4744 1511.21 73.0216 1524.66 73.0216Z" fill="#1E252E"/>
<path d="M1633.26 74.7466L1605.14 155.825C1594.62 186.876 1581.85 198.089 1556.84 198.089C1546.14 198.089 1537.69 195.846 1531.65 192.051L1538.38 169.625C1542 172.213 1545.8 173.248 1553.56 173.248C1560.63 173.248 1564.26 171.695 1566.16 166.865L1567.36 163.588L1556.84 139.092L1531.65 74.7466H1569.95L1580.3 121.496L1583.92 140.644L1588.06 120.978L1598.93 74.7466H1633.26Z" fill="#1E252E"/>
<path d="M219.255 101.504H185.364C176.119 101.504 168.628 93.9951 168.628 84.7278V16.7762C168.628 7.50896 161.137 0 151.891 0H84.1006C74.8554 0 67.3642 7.50896 67.3642 16.7762V84.7198C67.3642 93.987 59.873 101.496 50.6278 101.496H16.7364C7.49117 101.496 0 109.005 0 118.272V186.224C0 195.491 7.49117 203 16.7364 203H84.5271C93.7724 203 101.264 195.491 101.264 186.224V118.272C101.264 109.005 108.755 101.496 118 101.496C127.245 101.496 134.736 109.005 134.736 118.272V186.224C134.736 195.491 142.228 203 151.473 203H219.264C228.509 203 236 195.491 236 186.224V118.272C236 109.005 228.509 101.496 219.264 101.496L219.255 101.504Z" fill="#3A60E4"/>
</svg>
