<svg xmlns="http://www.w3.org/2000/svg" width="38" height="32" viewBox="0 0 38 32" fill="none">
  <path id="logo-atomicmem" d="M34.3947 16.0006H29.0781C27.6278 16.0006 26.4527 14.817 26.4527 13.3561V2.64452C26.4527 1.18368 25.2775 0 23.8272 0H13.1929C11.7426 0 10.5674 1.18368 10.5674 2.64452V13.3548C10.5674 14.8157 9.3923 15.9994 7.94199 15.9994H2.62545C1.17514 15.9994 0 17.183 0 18.6439V29.3555C0 30.8163 1.17514 32 2.62545 32H13.2598C14.7101 32 15.8852 30.8163 15.8852 29.3555V18.6439C15.8852 17.183 17.0604 15.9994 18.5107 15.9994C19.961 15.9994 21.1361 17.183 21.1361 18.6439V29.3555C21.1361 30.8163 22.3113 32 23.7616 32H34.3959C35.8462 32 37.0214 30.8163 37.0214 29.3555V18.6439C37.0214 17.183 35.8462 15.9994 34.3959 15.9994L34.3947 16.0006Z" fill="#3A60E4"/>
</svg>